<?xml version="1.0" standalone="no"?>
<!DOCTYPE svg PUBLIC "-//W3C//DTD SVG 20010904//EN"
 "http://www.w3.org/TR/2001/REC-SVG-20010904/DTD/svg10.dtd">
<svg version="1.0" xmlns="http://www.w3.org/2000/svg"
 width="2460.000000pt" height="596.000000pt" viewBox="0 0 2460.000000 596.000000"
 preserveAspectRatio="xMidYMid meet">

<g transform="translate(0.000000,596.000000) scale(0.100000,-0.100000)"
fill="#000000" stroke="none">
<path d="M1663 5737 l-423 -212 0 -1782 c0 -981 2 -1783 5 -1783 3 0 196 96
430 212 l425 213 0 1782 c0 981 -3 1783 -7 1782 -5 0 -198 -95 -430 -212z"/>
<path d="M4198 5739 l-418 -209 0 -1785 c0 -982 2 -1785 5 -1785 3 0 194 95
425 210 l420 210 0 1785 c0 982 -3 1785 -7 1784 -5 0 -196 -94 -425 -210z"/>
<path d="M16765 4530 c-267 -40 -474 -228 -541 -490 -21 -84 -21 -226 0 -309
52 -201 203 -355 421 -429 l80 -27 600 -5 c428 -4 606 -8 620 -17 72 -41 96
-129 53 -193 -50 -74 6 -70 -940 -70 l-848 0 0 -245 0 -245 848 0 c566 0 868
4 908 11 141 26 277 100 389 213 127 128 185 264 185 434 -1 227 -127 429
-331 530 -143 71 -152 72 -779 72 -369 0 -568 4 -594 11 -51 14 -93 56 -101
102 -10 51 0 82 40 125 l33 37 769 5 768 5 0 245 0 245 -765 1 c-421 1 -787
-2 -815 -6z"/>
<path d="M6990 3515 l0 -1015 270 0 270 0 0 245 0 245 543 0 c590 1 631 4 767
57 177 69 319 201 410 382 70 140 94 349 57 502 -65 269 -245 470 -505 563
l-87 31 -862 3 -863 3 0 -1016z m1697 506 c69 -31 135 -102 158 -170 36 -109
-3 -238 -94 -307 -83 -64 -87 -64 -683 -64 l-538 0 0 285 0 286 553 -3 552 -3
52 -24z"/>
<path d="M9990 3515 l0 -1015 265 0 265 0 0 245 0 245 284 0 284 0 240 -245
241 -245 378 0 378 0 -264 264 -264 264 65 30 c161 73 295 201 372 354 66 133
81 197 80 353 0 151 -14 218 -75 340 -100 202 -283 349 -503 405 -76 19 -113
20 -913 20 l-833 0 0 -1015z m1691 509 c108 -50 170 -144 170 -258 0 -113 -53
-200 -156 -254 l-50 -27 -562 -3 -563 -3 0 279 c0 153 3 282 7 286 4 4 255 6
558 4 535 -3 551 -4 596 -24z"/>
<path d="M13670 4516 c-308 -69 -563 -276 -700 -569 -208 -444 -67 -976 336
-1269 80 -58 188 -110 299 -145 l90 -28 530 0 c515 0 532 1 607 22 619 176
924 869 638 1448 -136 276 -394 480 -682 539 -65 13 -156 16 -570 15 -348 -1
-509 -5 -548 -13z m992 -507 c90 -19 190 -73 257 -139 243 -244 178 -645 -130
-799 -116 -59 -160 -63 -605 -59 -372 4 -392 5 -448 26 -166 62 -278 176 -326
330 -24 76 -26 202 -6 278 45 171 189 310 368 358 67 19 806 22 890 5z"/>
<path d="M19200 3515 l0 -1015 1165 0 1165 0 0 245 0 245 -900 0 -901 0 3 138
3 137 643 3 642 2 0 245 0 245 -645 0 -645 0 0 140 0 140 900 0 900 0 0 245 0
245 -1165 0 -1165 0 0 -1015z"/>
<path d="M22260 3515 l0 -1015 265 0 265 0 0 245 0 245 284 0 284 0 240 -245
240 -245 378 0 379 0 -264 264 -264 264 65 30 c233 105 397 315 445 565 18 96
13 248 -13 342 -69 263 -290 477 -558 545 -76 19 -113 20 -913 20 l-833 0 0
-1015z m1691 509 c110 -51 169 -141 169 -258 -1 -117 -51 -199 -155 -254 l-50
-27 -562 -3 -563 -3 0 279 c0 153 3 282 7 286 4 4 255 6 558 4 535 -3 551 -4
596 -24z"/>
<path d="M428 3789 l-418 -209 0 -1785 c0 -982 2 -1785 5 -1785 3 0 194 95
425 210 l420 210 0 1785 c0 982 -3 1785 -7 1784 -5 0 -196 -94 -425 -210z"/>
<path d="M2933 3787 l-423 -212 0 -1782 c0 -981 2 -1783 5 -1783 3 0 194 95
425 210 l420 210 0 1785 c0 982 -1 1785 -2 1784 -2 0 -193 -95 -425 -212z"/>
<path d="M7010 1527 c-14 -7 -33 -28 -43 -47 -16 -31 -17 -59 -15 -228 l3
-194 33 -29 32 -29 206 0 206 0 29 29 c29 29 29 30 29 150 l0 121 -110 0 -110
0 0 -45 0 -45 60 0 60 0 0 -55 0 -55 -170 0 -170 0 0 170 0 170 169 0 c168 0
170 0 173 -22 3 -20 10 -23 51 -26 l47 -3 0 41 c0 99 -28 110 -267 110 -130 0
-196 -4 -213 -13z"/>
<path d="M7730 1270 l0 -270 50 0 50 0 0 90 0 90 88 0 88 0 74 -90 75 -90 58
0 c35 0 57 4 57 11 0 6 -29 46 -65 88 l-64 78 47 14 c65 19 82 55 82 169 0 96
-18 146 -60 167 -18 9 -91 13 -252 13 l-228 0 0 -270z m435 90 l0 -75 -167 -3
-168 -2 0 80 0 80 168 -2 167 -3 0 -75z"/>
<path d="M8490 1320 c0 -332 -10 -320 278 -320 l204 0 29 29 29 29 0 241 0
241 -45 0 -45 0 -2 -217 -3 -218 -172 -3 -173 -2 0 220 0 220 -50 0 -50 0 0
-220z"/>
<path d="M9270 1271 l0 -271 50 0 50 0 0 90 0 90 163 0 c262 0 280 12 275 192
-3 102 -4 109 -31 135 l-27 28 -240 3 -240 3 0 -270z m438 92 l-3 -78 -167 -3
-168 -2 0 80 0 80 170 0 171 0 -3 -77z"/>
<path d="M10061 1526 c-46 -25 -50 -48 -51 -254 0 -210 6 -238 55 -260 40 -18
397 -16 434 2 46 24 51 50 51 262 l0 196 -34 34 -34 34 -198 0 c-146 -1 -205
-4 -223 -14z m389 -256 l0 -170 -170 0 -170 0 0 170 0 170 170 0 170 0 0 -170z"/>
<path d="M11198 1511 l-33 -29 0 -212 0 -212 33 -29 32 -29 235 0 235 0 0 50
0 50 -220 0 -220 0 0 170 0 170 220 0 220 0 0 50 0 50 -235 0 -235 0 -32 -29z"/>
<path d="M11981 1526 c-46 -25 -50 -48 -51 -254 0 -210 6 -238 55 -260 40 -18
397 -16 434 2 46 24 51 50 51 262 l0 196 -34 34 -34 34 -198 0 c-146 -1 -205
-4 -223 -14z m389 -256 l0 -170 -170 0 -170 0 0 170 0 170 170 0 170 0 0 -170z"/>
<path d="M12700 1270 l0 -270 50 0 50 0 2 194 3 195 163 -195 163 -194 55 0
54 0 0 270 0 270 -50 0 -50 0 -2 -193 -3 -193 -160 192 -160 193 -57 0 -58 1
0 -270z"/>
<path d="M13508 1511 l-33 -29 0 -102 0 -102 33 -29 32 -29 185 0 185 0 0 -60
0 -60 -170 0 c-163 0 -170 1 -170 20 0 17 -7 20 -51 20 l-52 0 6 -42 c4 -31
14 -51 37 -70 l30 -28 196 0 c267 0 274 4 274 162 -1 151 -12 158 -259 158
l-181 0 0 60 0 60 169 0 c168 0 170 0 173 -22 3 -20 10 -23 51 -26 l47 -3 0
43 c0 45 -19 78 -57 97 -14 7 -93 11 -217 11 l-196 0 -32 -29z"/>
<path d="M14220 1490 l0 -50 110 0 110 0 0 -220 0 -220 50 0 50 0 0 220 0 220
110 0 110 0 0 50 0 50 -270 0 -270 0 0 -50z"/>
<path d="M14960 1270 l0 -270 50 0 50 0 0 90 0 90 89 0 90 0 77 -90 77 -90 53
0 c40 0 54 4 54 14 0 8 -27 47 -61 87 l-61 73 39 13 c21 7 48 25 61 39 20 23
22 35 22 129 0 185 0 185 -310 185 l-230 0 0 -270z m440 90 l0 -80 -167 2
-168 3 -3 78 -3 77 171 0 170 0 0 -80z"/>
<path d="M15730 1310 c0 -251 4 -275 55 -298 40 -18 397 -16 434 2 47 25 51
48 51 296 l0 230 -50 0 -50 0 0 -220 0 -220 -170 0 -170 0 0 220 0 220 -50 0
-50 0 0 -230z"/>
<path d="M16538 1511 l-33 -29 0 -212 0 -212 33 -29 32 -29 235 0 235 0 0 50
0 50 -220 0 -220 0 0 170 0 170 220 0 220 0 0 50 0 50 -235 0 -235 0 -32 -29z"/>
<path d="M17240 1490 l0 -50 110 0 110 0 0 -220 0 -220 50 0 50 0 0 220 0 220
110 0 110 0 0 50 0 50 -270 0 -270 0 0 -50z"/>
<path d="M18045 1528 c-52 -28 -55 -38 -55 -261 l0 -209 31 -29 31 -29 204 0
204 0 32 29 33 29 0 212 0 212 -33 29 -32 29 -198 0 c-124 0 -204 -5 -217 -12z
m385 -258 l0 -170 -170 0 -170 0 0 170 0 170 170 0 170 0 0 -170z"/>
<path d="M18760 1270 l0 -270 50 0 50 0 0 90 0 90 89 0 88 0 77 -90 76 -90 55
0 c39 0 55 4 55 13 0 7 -27 45 -60 85 -33 39 -60 73 -60 75 0 2 18 9 39 16 69
20 81 47 81 173 l0 110 -34 34 -34 34 -236 0 -236 0 0 -270z m438 93 l-3 -78
-167 -3 -168 -2 0 80 0 80 170 0 171 0 -3 -77z"/>
</g>
</svg>
